<svg width="22" height="22" viewBox="0 0 22 22" fill="none" xmlns="http://www.w3.org/2000/svg">
<path d="M11.0049 5.60952C7.88168 5.60952 5.36249 8.01421 5.36249 10.9955C5.36249 13.9767 7.88168 16.3814 11.0049 16.3814C14.1281 16.3814 16.6473 13.9767 16.6473 10.9955C16.6473 8.01421 14.1281 5.60952 11.0049 5.60952ZM11.0049 14.497C8.98659 14.497 7.33659 12.9267 7.33659 10.9955C7.33659 9.06421 8.98168 7.4939 11.0049 7.4939C13.0281 7.4939 14.6732 9.06421 14.6732 10.9955C14.6732 12.9267 13.0232 14.497 11.0049 14.497ZM18.1942 5.38921C18.1942 6.08765 17.6049 6.64546 16.8781 6.64546C16.1464 6.64546 15.562 6.08296 15.562 5.38921C15.562 4.69546 16.1513 4.13296 16.8781 4.13296C17.6049 4.13296 18.1942 4.69546 18.1942 5.38921ZM21.9312 6.66421C21.8477 4.9814 21.4451 3.49077 20.1535 2.26265C18.8669 1.03452 17.3053 0.650146 15.5424 0.565771C13.7254 0.467334 8.27945 0.467334 6.46249 0.565771C4.70445 0.645459 3.14285 1.02983 1.85133 2.25796C0.559812 3.48608 0.162044 4.97671 0.0736511 6.65952C-0.0294739 8.3939 -0.0294739 13.5923 0.0736511 15.3267C0.157133 17.0095 0.559812 18.5001 1.85133 19.7283C3.14285 20.9564 4.69954 21.3408 6.46249 21.4251C8.27945 21.5236 13.7254 21.5236 15.5424 21.4251C17.3053 21.3455 18.8669 20.9611 20.1535 19.7283C21.4402 18.5001 21.8428 17.0095 21.9312 15.3267C22.0343 13.5923 22.0343 8.39858 21.9312 6.66421ZM19.5839 17.1876C19.2009 18.1064 18.4594 18.8142 17.4919 19.1845C16.0433 19.733 12.6058 19.6064 11.0049 19.6064C9.404 19.6064 5.96159 19.7283 4.51784 19.1845C3.55534 18.8189 2.81383 18.1111 2.42588 17.1876C1.85133 15.8048 1.98392 12.5236 1.98392 10.9955C1.98392 9.46733 1.85624 6.1814 2.42588 4.80327C2.80892 3.88452 3.55043 3.17671 4.51784 2.8064C5.9665 2.25796 9.404 2.38452 11.0049 2.38452C12.6058 2.38452 16.0482 2.26265 17.4919 2.8064C18.4544 3.17202 19.196 3.87983 19.5839 4.80327C20.1585 6.18608 20.0259 9.46733 20.0259 10.9955C20.0259 12.5236 20.1585 15.8095 19.5839 17.1876Z" fill="white"/>
</svg>
